<svg xmlns="http://www.w3.org/2000/svg" version="1.1" xmlns:xlink="http://www.w3.org/1999/xlink" xmlns:svgjs="http://svgjs.dev/svgjs" width="1500" height="1500" viewBox="0 0 1500 1500"><rect width="1500" height="1500" fill="#ffffff"></rect><g transform="matrix(0.6666666666666666,0,0,0.6666666666666666,249.33280205376155,447)"><svg viewBox="0 0 330 200" data-background-color="#171717" preserveAspectRatio="xMidYMid meet" height="909" width="1500" xmlns="http://www.w3.org/2000/svg" xmlns:xlink="http://www.w3.org/1999/xlink"><g id="tight-bounds" transform="matrix(1,0,0,1,0.22017532225868308,0)"><svg viewBox="0 0 329.55964935548263 200" height="200" width="329.55964935548263"><g><svg viewBox="0 0 331.20744760226 200.99999999999997" height="200" width="329.55964935548263"><g><rect width="5.652423607577269" height="200.99999999999997" x="127.84019062811568" y="0" fill="#000000" opacity="1" stroke-width="0" stroke="transparent" fill-opacity="1" class="rect-qz-0" data-fill-palette-color="primary" rx="1%" id="qz-0" data-palette-color="#eb3b5a"></rect></g><g transform="matrix(1,0,0,1,148.28953467437688,0.4999999999999858)"><svg viewBox="0 0 182.91791292788307 200" height="200" width="182.91791292788307"><g id="textblocktransform"><svg viewBox="0 0 182.91791292788307 200" height="200" width="182.91791292788307" id="textblock"><g><svg viewBox="0 0 182.91791292788307 200" height="200" width="182.91791292788307"><g transform="matrix(1,0,0,1,0,0)"><svg width="182.91791292788307" viewBox="1.5 -36.5 137.6 137.3" height="200" data-palette-color="#eb3b5a"><svg></svg><svg></svg><svg></svg><g class="wordmark-text-0" data-fill-palette-color="primary" id="text-0"><path d="M12.5 0.5v0c-2.167 0-4.2-0.36-6.1-1.08-1.9-0.713-3.533-1.787-4.9-3.22v0l1.7-3.1c1.5 1.4 3 2.4 4.5 3 1.5 0.6 3.033 0.9 4.6 0.9v0c1.8 0 3.267-0.343 4.4-1.03 1.133-0.68 1.7-1.687 1.7-3.02v0c0-0.967-0.29-1.683-0.87-2.15-0.587-0.467-1.413-0.86-2.48-1.18-1.067-0.313-2.333-0.67-3.8-1.07v0c-1.8-0.533-3.317-1.1-4.55-1.7-1.233-0.6-2.167-1.35-2.8-2.25-0.633-0.9-0.95-2.033-0.95-3.4v0c0-1.667 0.433-3.077 1.3-4.23 0.867-1.147 2.06-2.02 3.58-2.62 1.513-0.6 3.237-0.9 5.17-0.9v0c1.933 0 3.683 0.3 5.25 0.9 1.567 0.6 2.917 1.483 4.05 2.65v0l-2 3.05c-1.033-1.067-2.167-1.86-3.4-2.38-1.233-0.513-2.617-0.77-4.15-0.77v0c-0.9 0-1.783 0.107-2.65 0.32-0.867 0.22-1.583 0.603-2.15 1.15-0.567 0.553-0.85 1.33-0.85 2.33v0c0 0.833 0.227 1.493 0.68 1.98 0.447 0.48 1.113 0.887 2 1.22 0.88 0.333 1.953 0.7 3.22 1.1v0c1.967 0.567 3.677 1.133 5.13 1.7 1.447 0.567 2.57 1.3 3.37 2.2 0.8 0.9 1.2 2.15 1.2 3.75v0c0 2.467-0.933 4.39-2.8 5.77-1.867 1.387-4.333 2.08-7.4 2.08zM42 0.5v0c-2.133 0-4.033-0.533-5.7-1.6-1.667-1.067-2.983-2.417-3.95-4.05v0 15.8h-4.4v-36.75h3.9v4.9c1.033-1.6 2.383-2.893 4.05-3.88 1.667-0.98 3.483-1.47 5.45-1.47v0c1.8 0 3.45 0.367 4.95 1.1 1.5 0.733 2.8 1.733 3.9 3 1.1 1.267 1.96 2.707 2.58 4.32 0.613 1.62 0.92 3.313 0.92 5.08v0c0 2.467-0.49 4.733-1.47 6.8-0.987 2.067-2.363 3.707-4.13 4.92-1.767 1.22-3.8 1.83-6.1 1.83zM40.65-3.3v0c1.3 0 2.477-0.277 3.53-0.83 1.047-0.547 1.947-1.28 2.7-2.2 0.747-0.913 1.32-1.953 1.72-3.12 0.4-1.167 0.6-2.367 0.6-3.6v0c0-1.3-0.223-2.533-0.67-3.7-0.453-1.167-1.087-2.2-1.9-3.1-0.82-0.9-1.77-1.61-2.85-2.13-1.087-0.513-2.263-0.77-3.53-0.77v0c-0.8 0-1.623 0.15-2.47 0.45-0.853 0.3-1.663 0.723-2.43 1.27-0.767 0.553-1.417 1.18-1.95 1.88-0.533 0.7-0.883 1.45-1.05 2.25v0 7.45c0.5 1.133 1.167 2.167 2 3.1 0.833 0.933 1.8 1.673 2.9 2.22 1.1 0.553 2.233 0.83 3.4 0.83zM72.9-26.25v4c-2.2 0.033-4.14 0.59-5.82 1.67-1.687 1.087-2.88 2.58-3.58 4.48v0 16.1h-4.4v-26.1h4.1v6.05c0.9-1.8 2.093-3.26 3.58-4.38 1.48-1.113 3.037-1.737 4.67-1.87v0c0.333 0 0.617 0 0.85 0 0.233 0 0.433 0.017 0.6 0.05zM81.65 0h-4.4v-26.1h4.4zM81.65-31h-4.4v-5.5h4.4zM100.3 0.5v0c-1.967 0-3.757-0.36-5.37-1.08-1.62-0.713-3.02-1.703-4.2-2.97-1.187-1.267-2.103-2.717-2.75-4.35-0.653-1.633-0.98-3.367-0.98-5.2v0c0-2.467 0.55-4.717 1.65-6.75 1.1-2.033 2.65-3.66 4.65-4.88 2-1.213 4.317-1.82 6.95-1.82v0c2.567 0 4.81 0.573 6.73 1.72 1.913 1.153 3.337 2.697 4.27 4.63v0l-4.3 1.35c-0.667-1.233-1.6-2.193-2.8-2.88-1.2-0.68-2.533-1.02-4-1.02v0c-1.6 0-3.057 0.417-4.37 1.25-1.32 0.833-2.363 1.977-3.13 3.43-0.767 1.447-1.15 3.103-1.15 4.97v0c0 1.833 0.39 3.49 1.17 4.97 0.787 1.487 1.84 2.663 3.16 3.53 1.313 0.867 2.77 1.3 4.37 1.3v0c1.033 0 2.027-0.183 2.98-0.55 0.947-0.367 1.78-0.86 2.5-1.48 0.713-0.613 1.203-1.287 1.47-2.02v0l4.3 1.3c-0.533 1.267-1.34 2.39-2.42 3.37-1.087 0.987-2.37 1.763-3.85 2.33-1.487 0.567-3.113 0.85-4.88 0.85zM139.1-15.6v15.6h-4.4v-14.6c0-2.667-0.473-4.667-1.42-6-0.953-1.333-2.313-2-4.08-2v0c-1.133 0-2.273 0.3-3.42 0.9-1.153 0.6-2.163 1.407-3.03 2.42-0.867 1.02-1.5 2.197-1.9 3.53v0 15.75h-4.4v-36.5h4.4v16c1.033-1.867 2.443-3.343 4.23-4.43 1.78-1.08 3.703-1.62 5.77-1.62v0c1.567 0 2.877 0.273 3.93 0.82 1.047 0.553 1.887 1.33 2.52 2.33 0.633 1 1.093 2.157 1.38 3.47 0.28 1.32 0.42 2.763 0.42 4.33z" fill="#000000" fill-rule="nonzero" stroke="none" stroke-width="1" stroke-linecap="butt" stroke-linejoin="miter" stroke-miterlimit="10" stroke-dasharray="" stroke-dashoffset="0" font-family="none" font-weight="none" font-size="none" text-anchor="none" style="mix-blend-mode: normal" data-fill-palette-color="primary" opacity="1"></path><path transform="translate(0,50.15)" d="M42.9-15.6v15.6h-4.4v-14.6c0-2.733-0.44-4.75-1.32-6.05-0.887-1.3-2.197-1.95-3.93-1.95v0c-1.767 0-3.367 0.64-4.8 1.92-1.433 1.287-2.45 2.947-3.05 4.98v0 15.7h-4.4v-14.6c0-2.767-0.433-4.793-1.3-6.08-0.867-1.28-2.167-1.92-3.9-1.92v0c-1.733 0-3.323 0.623-4.77 1.87-1.453 1.253-2.48 2.913-3.08 4.98v0 15.75h-4.4v-26.1h4v5.6c1.067-1.933 2.45-3.427 4.15-4.48 1.7-1.047 3.617-1.57 5.75-1.57v0c2.167 0 3.9 0.59 5.2 1.77 1.3 1.187 2.1 2.713 2.4 4.58v0c1.167-2.067 2.583-3.643 4.25-4.73 1.667-1.08 3.567-1.62 5.7-1.62v0c1.5 0 2.76 0.273 3.78 0.82 1.013 0.553 1.82 1.32 2.42 2.3 0.6 0.987 1.033 2.147 1.3 3.48 0.267 1.333 0.4 2.783 0.4 4.35zM54.15 0h-4.4v-26.1h4.4zM54.15-31h-4.4v-5.5h4.4zM73.7-4.8l1.05 3.5c-0.367 0.167-0.867 0.383-1.5 0.65-0.633 0.267-1.367 0.5-2.2 0.7-0.833 0.2-1.717 0.3-2.65 0.3v0c-1.067 0-2.05-0.193-2.95-0.58-0.9-0.38-1.617-0.977-2.15-1.79-0.533-0.82-0.8-1.847-0.8-3.08v0-17.55h-3.55v-3.45h3.55v-8.7h4.4v8.7h5.85v3.45h-5.85v16.2c0.067 0.933 0.383 1.623 0.95 2.07 0.567 0.453 1.233 0.68 2 0.68v0c0.867 0 1.667-0.15 2.4-0.45 0.733-0.3 1.217-0.517 1.45-0.65z" fill="#000000" fill-rule="nonzero" stroke="none" stroke-width="1" stroke-linecap="butt" stroke-linejoin="miter" stroke-miterlimit="10" stroke-dasharray="" stroke-dashoffset="0" font-family="none" font-weight="none" font-size="none" text-anchor="none" style="mix-blend-mode: normal" data-fill-palette-color="primary" opacity="1"></path><path transform="translate(0,100.3)" d="M3.3-10.45v0-15.65h4.4v14.8c0 2.667 0.467 4.667 1.4 6 0.933 1.333 2.317 2 4.15 2v0c1.2 0 2.36-0.26 3.48-0.78 1.113-0.513 2.12-1.253 3.02-2.22 0.9-0.967 1.6-2.117 2.1-3.45v0-16.35h4.4v21.1c0 0.533 0.11 0.923 0.33 1.17 0.213 0.253 0.57 0.397 1.07 0.43v0 3.4c-0.5 0.067-0.89 0.11-1.17 0.13-0.287 0.013-0.563 0.02-0.83 0.02v0c-0.833 0-1.55-0.26-2.15-0.78-0.6-0.513-0.917-1.153-0.95-1.92v0l-0.1-3.05c-1.133 1.933-2.657 3.433-4.57 4.5-1.92 1.067-4.013 1.6-6.28 1.6v0c-2.733 0-4.8-0.923-6.2-2.77-1.4-1.853-2.1-4.58-2.1-8.18zM56.25-15.6v15.6h-4.4v-14.6c0-2.767-0.423-4.793-1.27-6.08-0.853-1.28-2.147-1.92-3.88-1.92v0c-1.2 0-2.39 0.3-3.57 0.9-1.187 0.6-2.237 1.407-3.15 2.42-0.92 1.02-1.58 2.197-1.98 3.53v0 15.75h-4.4v-26.1h4v5.6c0.7-1.233 1.6-2.3 2.7-3.2 1.1-0.9 2.35-1.6 3.75-2.1 1.4-0.5 2.867-0.75 4.4-0.75v0c1.5 0 2.76 0.273 3.78 0.82 1.013 0.553 1.813 1.32 2.4 2.3 0.58 0.987 0.997 2.147 1.25 3.48 0.247 1.333 0.37 2.783 0.37 4.35zM72.05 0.5v0c-2.167 0-4.2-0.36-6.1-1.08-1.9-0.713-3.533-1.787-4.9-3.22v0l1.7-3.1c1.5 1.4 3 2.4 4.5 3 1.5 0.6 3.033 0.9 4.6 0.9v0c1.8 0 3.267-0.343 4.4-1.03 1.133-0.68 1.7-1.687 1.7-3.02v0c0-0.967-0.29-1.683-0.87-2.15-0.587-0.467-1.413-0.86-2.48-1.18-1.067-0.313-2.333-0.67-3.8-1.07v0c-1.8-0.533-3.317-1.1-4.55-1.7-1.233-0.6-2.167-1.35-2.8-2.25-0.633-0.9-0.95-2.033-0.95-3.4v0c0-1.667 0.433-3.077 1.3-4.23 0.867-1.147 2.06-2.02 3.58-2.62 1.513-0.6 3.237-0.9 5.17-0.9v0c1.933 0 3.683 0.3 5.25 0.9 1.567 0.6 2.917 1.483 4.05 2.65v0l-2 3.05c-1.033-1.067-2.167-1.86-3.4-2.38-1.233-0.513-2.617-0.77-4.15-0.77v0c-0.9 0-1.783 0.107-2.65 0.32-0.867 0.22-1.583 0.603-2.15 1.15-0.567 0.553-0.85 1.33-0.85 2.33v0c0 0.833 0.227 1.493 0.68 1.98 0.447 0.48 1.113 0.887 2 1.22 0.88 0.333 1.953 0.7 3.22 1.1v0c1.967 0.567 3.673 1.133 5.12 1.7 1.453 0.567 2.58 1.3 3.38 2.2 0.8 0.9 1.2 2.15 1.2 3.75v0c0 2.467-0.933 4.39-2.8 5.77-1.867 1.387-4.333 2.08-7.4 2.08z" fill="#000000" fill-rule="nonzero" stroke="none" stroke-width="1" stroke-linecap="butt" stroke-linejoin="miter" stroke-miterlimit="10" stroke-dasharray="" stroke-dashoffset="0" font-family="none" font-weight="none" font-size="none" text-anchor="none" style="mix-blend-mode: normal" data-fill-palette-color="primary" opacity="1"></path></g></svg></g></svg></g></svg></g></svg></g><g transform="matrix(1,0,0,1,0,43.978364905284124)"><svg viewBox="0 0 113.04327018943172 113.04327018943172" height="113.04327018943172" width="113.04327018943172"><g><svg xmlns="http://www.w3.org/2000/svg" xmlns:xlink="http://www.w3.org/1999/xlink" version="1.1" x="0" y="0" viewBox="5 5 90 90" style="enable-background:new 0 0 100 100;" xml:space="preserve" height="113.04327018943172" width="113.04327018943172" class="icon-icon-0" data-fill-palette-color="accent" id="icon-0"><g fill="#ffe141" data-fill-palette-color="accent"><path d="M84 5H16C9.9 5 5 9.6 5 15.3V67c0 5.7 4.9 10.3 11 10.3h7.2v15.3c0 0.9 0.6 1.8 1.5 2.2 0.4 0.2 0.7 0.2 1.1 0.2 0.6 0 1.2-0.2 1.7-0.5l22.7-17.2H84c6.1 0 11-4.6 11-10.3V15.3C95 9.6 90.1 5 84 5zM47.2 50c-2.1 3.6-5.4 5.4-9.8 5.4H24.8V26.3h12.6c1.8 0 3.3 0.2 4.5 0.6 2 0.7 3.7 1.9 5 3.7 1 1.5 1.7 3 2.1 4.7 0.4 1.7 0.6 3.3 0.6 4.8C49.6 44.1 48.8 47.4 47.2 50zM76.4 55.5H54.3V26.3h21.4v5.2H60.3v6.2h14.2v5.1H60.3v7.5h16.2V55.5z" fill="#000000" data-fill-palette-color="accent"></path><path d="M36.4 31.4h-5.6v19.1h5.6c2.9 0 4.9-1.4 6-4.3 0.6-1.6 0.9-3.4 0.9-5.6 0-3-0.5-5.3-1.4-6.8C41 32.2 39.2 31.4 36.4 31.4z" fill="#000000" data-fill-palette-color="accent"></path></g></svg></g></svg></g></svg></g><defs></defs></svg><rect width="329.55964935548263" height="200" fill="none" stroke="none" visibility="hidden"></rect></g></svg></g></svg>